<svg id="Layer_1" data-name="Layer 1" xmlns="http://www.w3.org/2000/svg" xmlns:xlink="http://www.w3.org/1999/xlink" viewBox="0 0 1024 1024"><defs><style>.cls-1{stroke:#231f20;stroke-miterlimit:10;fill:url(#linear-gradient);}</style><linearGradient id="linear-gradient" x1="512" y1="976" x2="512" y2="48" gradientUnits="userSpaceOnUse"><stop offset="0" stop-color="#e67c67"/><stop offset="1" stop-color="#8974b5"/></linearGradient></defs><title>dasherr</title><path class="cls-1" d="M832,194.2H192a48.14,48.14,0,0,1-48-48V96a48.14,48.14,0,0,1,48-48H832a48.14,48.14,0,0,1,48,48v50.2A48.14,48.14,0,0,1,832,194.2ZM784,406.6V356.4a48.14,48.14,0,0,0-48-48H48a48.14,48.14,0,0,0-48,48v50.2a48.14,48.14,0,0,0,48,48H736A48.14,48.14,0,0,0,784,406.6Zm240,260.7V617.1a48.14,48.14,0,0,0-48-48H288a48.14,48.14,0,0,0-48,48v50.2a48.14,48.14,0,0,0,48,48H976A48.14,48.14,0,0,0,1024,667.3ZM880,928V877.8a48.14,48.14,0,0,0-48-48H192a48.14,48.14,0,0,0-48,48V928a48.14,48.14,0,0,0,48,48H832A48.14,48.14,0,0,0,880,928Z"/></svg>